<?xml version="1.0" encoding="utf-8"?>
<!-- Generator: Adobe Illustrator 17.1.0, SVG Export Plug-In . SVG Version: 6.00 Build 0)  -->
<!DOCTYPE svg PUBLIC "-//W3C//DTD SVG 1.1//EN" "http://www.w3.org/Graphics/SVG/1.1/DTD/svg11.dtd">
<svg version="1.1" id="Lag_1" xmlns="http://www.w3.org/2000/svg" xmlns:xlink="http://www.w3.org/1999/xlink" x="0px" y="0px"
	 viewBox="0 0 83.043 100" enable-background="new 0 0 83.043 100" xml:space="preserve">
<g>
	<path fill="#E74C3C" d="M41.522,100L11.99,70.468c-15.987-15.987-15.987-41.907,0-57.894l0.585-0.585
		c15.987-15.987,41.907-15.987,57.894,0l0.585,0.585c15.987,15.987,15.987,41.907,0,57.894L41.522,100z"/>
	<path fill="#C0392B" d="M41.522,3c10.133,0,19.66,3.946,26.826,11.112l0.585,0.584c14.792,14.792,14.792,38.859,0,53.651
		l-27.41,27.41l-27.41-27.41c-14.792-14.792-14.792-38.859,0-53.651l0.585-0.585C21.861,6.946,31.388,3,41.522,3 M41.522,0
		C31.045,0,20.569,3.997,12.575,11.99l-0.585,0.585c-15.987,15.987-15.987,41.907,0,57.894L41.522,100l29.532-29.532
		c15.987-15.987,15.987-41.907,0-57.894l-0.585-0.585C62.475,3.997,51.998,0,41.522,0L41.522,0z"/>
</g>
<g>
	<path fill="#ECF0F1" d="M51.28,57.857H31.768c-3.549,0-5.96-2.165-5.96-5.782c0-5.045,1.183-12.791,7.724-12.791
		c0.692,0,3.617,3.103,7.992,3.103s7.3-3.103,7.992-3.103c6.541,0,7.724,7.746,7.724,12.791
		C57.24,55.692,54.828,57.857,51.28,57.857z M41.524,40.713c-4.732,0-8.572-3.84-8.572-8.572s3.84-8.572,8.572-8.572
		s8.572,3.84,8.572,8.572S46.256,40.713,41.524,40.713z"/>
</g>
</svg>
