<?xml version="1.0" encoding="utf-8"?>
<!-- Generator: Adobe Illustrator 17.1.0, SVG Export Plug-In . SVG Version: 6.00 Build 0)  -->
<!DOCTYPE svg PUBLIC "-//W3C//DTD SVG 1.1//EN" "http://www.w3.org/Graphics/SVG/1.1/DTD/svg11.dtd">
<svg version="1.1" id="Lag_1" xmlns="http://www.w3.org/2000/svg" xmlns:xlink="http://www.w3.org/1999/xlink" x="0px" y="0px"
	 viewBox="0 0 83.043 100" enable-background="new 0 0 83.043 100" xml:space="preserve" width="42" height="50">
<g>
	<path fill="#3498DB" d="M41.522,100L11.99,70.468c-15.987-15.987-15.987-41.907,0-57.894l0.585-0.585
		c15.987-15.987,41.907-15.987,57.894,0l0.585,0.585c15.987,15.987,15.987,41.907,0,57.894L41.522,100z"/>
	<path fill="#2980B9" d="M41.522,3c10.133,0,19.66,3.946,26.826,11.112l0.585,0.584c14.792,14.792,14.792,38.859,0,53.651
		l-27.41,27.41l-27.41-27.41c-14.792-14.792-14.792-38.859,0-53.651l0.585-0.585C21.861,6.946,31.388,3,41.522,3 M41.522,0
		C31.045,0,20.569,3.997,12.575,11.99l-0.585,0.585c-15.987,15.987-15.987,41.907,0,57.894L41.522,100l29.532-29.532
		c15.987-15.987,15.987-41.907,0-57.894l-0.585-0.585C62.475,3.997,51.998,0,41.522,0L41.522,0z"/>
</g>
<g>
	<path fill="#ECF0F1" d="M64.383,51.427c0,0.402-0.313,0.715-0.714,0.715h-2.144V55c0,2.366-1.92,4.286-4.285,4.286
		c-2.367,0-4.287-1.92-4.287-4.286v-2.857H30.094V55c0,2.366-1.92,4.286-4.285,4.286c-2.367,0-4.287-1.92-4.287-4.286v-2.857h-2.143
		c-0.402,0-0.715-0.313-0.715-0.715v-8.572c0-2.768,2.232-5,5.001-5h0.625l2.345-9.354c0.691-2.813,3.415-4.934,6.316-4.934h17.145
		c2.902,0,5.626,2.121,6.318,4.934l2.344,9.354h0.625c2.768,0,5,2.232,5,5V51.427z M25.809,41.427c-1.965,0-3.572,1.606-3.572,3.571
		s1.607,3.571,3.572,3.571c1.964,0,3.571-1.606,3.571-3.571S27.773,41.427,25.809,41.427z M52.865,37.855l-1.987-7.97
		c-0.066-0.245-0.513-0.603-0.781-0.603H32.952c-0.268,0-0.714,0.357-0.781,0.603l-1.986,7.97H52.865z M57.241,41.427
		c-1.965,0-3.572,1.606-3.572,3.571s1.607,3.571,3.572,3.571c1.964,0,3.571-1.606,3.571-3.571S59.204,41.427,57.241,41.427z"/>
</g>
</svg>
