<?xml version="1.0" encoding="utf-8"?>
<!-- Generator: Adobe Illustrator 17.1.0, SVG Export Plug-In . SVG Version: 6.00 Build 0)  -->
<!DOCTYPE svg PUBLIC "-//W3C//DTD SVG 1.1//EN" "http://www.w3.org/Graphics/SVG/1.1/DTD/svg11.dtd">
<svg version="1.1" id="Lag_1" xmlns="http://www.w3.org/2000/svg" xmlns:xlink="http://www.w3.org/1999/xlink" x="0px" y="0px"
	 viewBox="0 0 41.522 50" enable-background="new 0 0 41.522 50" xml:space="preserve" width="21" height="25">
<g>
	<path fill="#3498DB" d="M6.525,34.704c-7.688-7.688-7.688-20.198,0-27.886l0.293-0.292C10.543,2.801,15.494,0.75,20.76,0.75
		c5.268,0,10.219,2.051,13.943,5.775l0.291,0.292c3.726,3.725,5.777,8.676,5.777,13.943s-2.052,10.219-5.776,13.943L20.76,48.939
		L6.525,34.704z"/>
	<path fill="#2980B9" d="M20.761,1.5c5.067,0,9.83,1.973,13.413,5.556l0.292,0.292c7.396,7.396,7.396,19.43,0,26.825L20.761,47.879
		L7.056,34.174c-7.396-7.396-7.396-19.43,0-26.826l0.292-0.292C10.931,3.473,15.694,1.5,20.761,1.5 M20.761,0
		C15.522,0,10.284,1.998,6.287,5.995L5.995,6.287c-7.993,7.993-7.993,20.953,0,28.947L20.761,50l14.766-14.766
		c7.993-7.993,7.993-20.953,0-28.947l-0.292-0.292C31.237,1.998,25.999,0,20.761,0L20.761,0z"/>
</g>
<g>
	<path fill="#ECF0F1" d="M16.239,13.637l0.273-0.684c-0.43,0-0.794,0.036-1.094,0.107c-0.3,0.072-0.651,0.186-1.055,0.342
		c-0.495,0.183-0.833,0.273-1.016,0.273c-0.222,0-0.403-0.084-0.547-0.254c-0.144-0.169-0.215-0.377-0.215-0.625
		c0-0.508,0.205-1.032,0.615-1.572c0.41-0.54,0.915-0.921,1.514-1.143c0.781-0.313,1.787-0.563,3.018-0.752
		c1.23-0.188,2.451-0.283,3.662-0.283c1.367,0,2.595,0.098,3.682,0.293s2.054,0.508,2.9,0.938s1.589,0.964,2.227,1.602
		c0.638,0.638,1.13,1.38,1.475,2.227c0.345,0.847,0.518,1.745,0.518,2.695c0,0.859-0.173,1.823-0.518,2.891
		c-0.345,1.068-0.823,2.109-1.436,3.125s-1.282,1.875-2.012,2.578c-0.847,0.82-1.917,1.514-3.213,2.08s-2.478,0.85-3.545,0.85
		c-0.456,0-0.856-0.081-1.201-0.244c-0.345-0.163-0.518-0.361-0.518-0.596c0-0.364,0.137-0.706,0.41-1.025
		c0.273-0.319,0.774-0.713,1.504-1.182c0.625-0.364,1.211-0.8,1.758-1.308c0.651-0.716,1.13-1.478,1.436-2.285
		s0.459-1.771,0.459-2.891c0-1.068-0.183-1.973-0.547-2.715s-0.956-1.406-1.775-1.992l-2.676,8.672l-0.488,1.523
		c-0.208,0.599-0.488,1.628-0.84,3.086c-0.638,2.513-1.236,4.258-1.797,5.234c-0.247,0.43-0.566,0.853-0.957,1.27
		c-0.625,0.547-1.417,1.025-2.374,1.436s-1.781,0.615-2.472,0.615c-0.456,0-0.817-0.133-1.084-0.4c-0.267-0.267-0.4-0.641-0.4-1.123
		c0-0.534,0.134-1.315,0.4-2.344c0.267-1.028,0.817-2.871,1.65-5.527l0.352-1.094l0.371-1.191L16.239,13.637z"/>
</g>
</svg>
